<svg xmlns="http://www.w3.org/2000/svg" xmlns:xlink="http://www.w3.org/1999/xlink" width="500" zoomAndPan="magnify" viewBox="0 0 375 374.999991" height="500" preserveAspectRatio="xMidYMid meet" version="1.0"><defs><clipPath id="30a2fae881"><path d="M 25.792969 125 L 108 125 L 108 228 L 25.792969 228 Z M 25.792969 125 " clip-rule="nonzero"/></clipPath><clipPath id="90e2c8dceb"><path d="M 89 9.796875 L 349.042969 9.796875 L 349.042969 365.296875 L 89 365.296875 Z M 89 9.796875 " clip-rule="nonzero"/></clipPath></defs><path fill="#ffffff" d="M 104.367188 165.507812 C 104.367188 165.507812 93.074219 167.460938 72.035156 150.375 C 61.117188 141.488281 44.792969 126.695312 38.453125 128.25 C 20.050781 132.769531 30.074219 178.777344 51.335938 198.957031 C 71.105469 217.734375 99.613281 224.683594 99.613281 224.683594 " fill-opacity="1" fill-rule="evenodd"/><g clip-path="url(#30a2fae881)"><path stroke-linecap="round" transform="matrix(-1.161687, 0, 0, 0.972026, 2629.826784, -2960.140126)" fill="none" stroke-linejoin="round" d="M 2173.958874 3215.599815 C 2173.958874 3215.599815 2183.680055 3217.609148 2201.79084 3200.031501 C 2211.189214 3190.889034 2225.241382 3175.670344 2230.698828 3177.269773 C 2246.53988 3181.919371 2237.911534 3229.251225 2219.609082 3250.011656 C 2202.591131 3269.329386 2178.051118 3276.478594 2178.051118 3276.478594 " stroke="#2a2a2a" stroke-width="5.26" stroke-opacity="1" stroke-miterlimit="1.5"/></g><path fill="#ffffff" d="M 102.648438 117.332031 C 116.542969 53.882812 158.382812 12.632812 213.3125 12.632812 C 268.933594 12.632812 314.089844 63.007812 314.089844 125.054688 C 314.089844 125.839844 313.746094 178.621094 317.527344 201.6875 C 321.148438 223.761719 338.9375 240.605469 344.355469 253.339844 C 348.824219 263.839844 345.515625 278.792969 331.285156 283.386719 C 321.832031 286.441406 303.769531 280.347656 303.769531 280.347656 C 303.769531 280.347656 319.707031 310.84375 318.902344 321.875 C 318.160156 332.113281 315.507812 348.964844 305.488281 351.921875 C 290.242188 356.421875 269.605469 343.929688 251.488281 346.855469 C 234.464844 349.605469 222.921875 363.324219 203.679688 362.386719 C 184.761719 361.464844 171.003906 347.195312 159.3125 344.832031 C 148.199219 342.585938 139.890625 361.472656 126.292969 357.441406 C 115.308594 354.183594 108.1875 349.683594 104.886719 341.019531 C 85.332031 289.734375 91.023438 170.410156 102.648438 117.332031 Z M 102.648438 117.332031 " fill-opacity="1" fill-rule="evenodd"/><g clip-path="url(#90e2c8dceb)"><path stroke-linecap="round" transform="matrix(0.723786, 0, 0, 0.71042, -317.066487, -162.39957)" fill="none" stroke-linejoin="round" d="M 579.887881 393.755502 C 599.084888 304.443179 656.891787 246.378898 732.783918 246.378898 C 809.631312 246.378898 872.020235 317.287702 872.020235 404.626059 C 872.020235 405.73126 871.545302 480.027147 876.769565 512.495858 C 881.772552 543.567946 906.350334 567.277528 913.835925 585.202675 C 920.010054 599.982674 915.438824 621.030976 895.777678 627.497226 C 882.717021 631.797062 857.761452 623.219384 857.761452 623.219384 C 857.761452 623.219384 879.781072 666.146263 878.669297 681.67406 C 877.643873 696.085658 873.979334 719.806237 860.136117 723.96861 C 839.07176 730.302895 810.55959 712.718656 785.528463 716.837041 C 762.008487 720.707993 746.060454 740.018765 719.475001 738.699123 C 693.337496 737.401474 674.329383 717.315411 658.176265 713.988812 C 642.821898 710.827168 631.342552 737.412471 612.555714 731.738007 C 597.379447 727.152248 587.540778 720.817963 582.980342 708.622265 C 555.963132 636.432307 563.826511 468.469276 579.887881 393.755502 Z M 579.887881 393.755502 " stroke="#2a2a2a" stroke-width="7.85" stroke-opacity="1" stroke-miterlimit="1.5"/></g><path fill="#2a2a2a" d="M 181.074219 119.652344 C 181.09375 120.242188 181.09375 120.832031 181.070312 121.417969 C 181.046875 122.007812 181.003906 122.59375 180.9375 123.171875 C 180.875 123.753906 180.789062 124.328125 180.683594 124.894531 C 180.578125 125.464844 180.449219 126.023438 180.304688 126.574219 C 180.15625 127.121094 179.992188 127.660156 179.804688 128.1875 C 179.621094 128.714844 179.417969 129.226562 179.195312 129.722656 C 178.972656 130.21875 178.730469 130.703125 178.472656 131.164062 C 178.214844 131.628906 177.941406 132.074219 177.652344 132.5 C 177.359375 132.929688 177.054688 133.332031 176.734375 133.71875 C 176.414062 134.101562 176.082031 134.464844 175.734375 134.800781 C 175.390625 135.140625 175.03125 135.453125 174.660156 135.746094 C 174.289062 136.035156 173.910156 136.296875 173.519531 136.535156 C 173.132812 136.773438 172.734375 136.984375 172.328125 137.167969 C 171.921875 137.351562 171.507812 137.507812 171.09375 137.636719 C 170.675781 137.765625 170.253906 137.867188 169.824219 137.9375 C 169.398438 138.007812 168.972656 138.050781 168.542969 138.0625 C 168.113281 138.078125 167.683594 138.0625 167.253906 138.015625 C 166.824219 137.972656 166.394531 137.898438 165.96875 137.796875 C 165.542969 137.695312 165.121094 137.566406 164.707031 137.40625 C 164.289062 137.25 163.878906 137.0625 163.472656 136.851562 C 163.066406 136.636719 162.671875 136.398438 162.28125 136.128906 C 161.894531 135.863281 161.515625 135.574219 161.148438 135.257812 C 160.777344 134.941406 160.421875 134.601562 160.078125 134.238281 C 159.734375 133.875 159.402344 133.488281 159.082031 133.082031 C 158.765625 132.671875 158.464844 132.246094 158.175781 131.796875 C 157.886719 131.351562 157.617188 130.886719 157.359375 130.402344 C 157.105469 129.921875 156.867188 129.421875 156.648438 128.910156 C 156.429688 128.394531 156.226562 127.867188 156.042969 127.328125 C 155.863281 126.789062 155.699219 126.238281 155.554688 125.679688 C 155.410156 125.121094 155.289062 124.550781 155.183594 123.976562 C 155.082031 123.402344 155 122.820312 154.9375 122.234375 C 154.878906 121.648438 154.835938 121.0625 154.816406 120.472656 C 154.796875 119.882812 154.800781 119.292969 154.820312 118.707031 C 154.84375 118.117188 154.886719 117.535156 154.953125 116.953125 C 155.019531 116.371094 155.101562 115.796875 155.210938 115.230469 C 155.316406 114.660156 155.441406 114.101562 155.589844 113.550781 C 155.734375 113.003906 155.902344 112.464844 156.085938 111.9375 C 156.273438 111.414062 156.476562 110.902344 156.699219 110.402344 C 156.921875 109.90625 157.160156 109.425781 157.417969 108.960938 C 157.675781 108.496094 157.949219 108.050781 158.242188 107.625 C 158.53125 107.199219 158.835938 106.792969 159.15625 106.40625 C 159.476562 106.023438 159.808594 105.664062 160.15625 105.324219 C 160.503906 104.984375 160.863281 104.671875 161.230469 104.382812 C 161.601562 104.089844 161.980469 103.828125 162.371094 103.589844 C 162.761719 103.351562 163.160156 103.140625 163.566406 102.957031 C 163.96875 102.773438 164.382812 102.617188 164.800781 102.488281 C 165.21875 102.359375 165.640625 102.261719 166.066406 102.1875 C 166.492188 102.117188 166.921875 102.074219 167.351562 102.0625 C 167.78125 102.050781 168.210938 102.066406 168.640625 102.109375 C 169.070312 102.152344 169.496094 102.226562 169.921875 102.328125 C 170.347656 102.429688 170.769531 102.558594 171.1875 102.71875 C 171.605469 102.878906 172.015625 103.0625 172.417969 103.277344 C 172.824219 103.488281 173.222656 103.730469 173.609375 103.996094 C 174 104.261719 174.375 104.550781 174.746094 104.867188 C 175.113281 105.183594 175.46875 105.523438 175.816406 105.886719 C 176.160156 106.253906 176.492188 106.636719 176.808594 107.046875 C 177.125 107.453125 177.429688 107.878906 177.71875 108.328125 C 178.003906 108.773438 178.277344 109.238281 178.53125 109.722656 C 178.785156 110.203125 179.023438 110.703125 179.242188 111.214844 C 179.464844 111.730469 179.664062 112.257812 179.847656 112.796875 C 180.03125 113.335938 180.195312 113.886719 180.335938 114.445312 C 180.480469 115.007812 180.605469 115.574219 180.707031 116.148438 C 180.808594 116.726562 180.890625 117.304688 180.953125 117.890625 C 181.015625 118.476562 181.054688 119.0625 181.074219 119.652344 Z M 181.074219 119.652344 " fill-opacity="1" fill-rule="nonzero"/><path fill="#fccead" d="M 158.792969 142.714844 C 158.808594 143.179688 158.761719 143.636719 158.652344 144.097656 C 158.542969 144.554688 158.371094 145 158.144531 145.4375 C 157.914062 145.871094 157.628906 146.285156 157.289062 146.683594 C 156.945312 147.078125 156.554688 147.445312 156.117188 147.789062 C 155.679688 148.128906 155.199219 148.4375 154.675781 148.710938 C 154.15625 148.984375 153.605469 149.21875 153.023438 149.414062 C 152.441406 149.609375 151.839844 149.761719 151.21875 149.871094 C 150.597656 149.984375 149.96875 150.046875 149.332031 150.066406 C 148.695312 150.085938 148.0625 150.0625 147.433594 149.992188 C 146.808594 149.917969 146.195312 149.804688 145.601562 149.644531 C 145.007812 149.488281 144.441406 149.289062 143.90625 149.046875 C 143.367188 148.804688 142.867188 148.53125 142.40625 148.214844 C 141.945312 147.902344 141.53125 147.558594 141.164062 147.183594 C 140.800781 146.8125 140.488281 146.414062 140.230469 145.996094 C 139.972656 145.574219 139.773438 145.140625 139.632812 144.6875 C 139.496094 144.238281 139.417969 143.78125 139.402344 143.320312 C 139.386719 142.855469 139.433594 142.394531 139.542969 141.9375 C 139.652344 141.480469 139.820312 141.035156 140.050781 140.597656 C 140.28125 140.164062 140.566406 139.746094 140.90625 139.351562 C 141.246094 138.957031 141.636719 138.585938 142.078125 138.246094 C 142.515625 137.90625 142.996094 137.597656 143.515625 137.324219 C 144.039062 137.050781 144.589844 136.816406 145.171875 136.621094 C 145.753906 136.425781 146.355469 136.269531 146.976562 136.160156 C 147.597656 136.050781 148.226562 135.988281 148.863281 135.96875 C 149.5 135.949219 150.132812 135.972656 150.757812 136.042969 C 151.386719 136.113281 151.996094 136.230469 152.589844 136.386719 C 153.183594 136.546875 153.75 136.746094 154.289062 136.988281 C 154.828125 137.226562 155.328125 137.503906 155.789062 137.816406 C 156.25 138.132812 156.660156 138.476562 157.027344 138.847656 C 157.394531 139.222656 157.707031 139.621094 157.964844 140.039062 C 158.222656 140.460938 158.421875 140.894531 158.558594 141.34375 C 158.699219 141.796875 158.777344 142.253906 158.792969 142.714844 Z M 158.792969 142.714844 " fill-opacity="1" fill-rule="nonzero"/><path fill="#600004" d="M 222.609375 143.472656 C 219.398438 140.789062 192.875 141.546875 189.886719 144.492188 C 185.097656 149.210938 195.304688 165.710938 206.941406 164.9375 C 218.21875 164.1875 228.105469 148.0625 222.609375 143.472656 Z M 222.609375 143.472656 " fill-opacity="1" fill-rule="evenodd"/><path fill="#cc2228" d="M 223.25 151.578125 C 223.683594 145.855469 188.535156 151.703125 194.261719 159.15625 C 197.332031 163.148438 202.160156 165.253906 206.941406 164.9375 C 214.191406 164.453125 222.722656 158.492188 223.25 151.578125 Z M 223.25 151.578125 " fill-opacity="1" fill-rule="evenodd"/><path stroke-linecap="round" transform="matrix(0.371529, -0.0115856, -0.0172403, -0.52083, -52.488333, 423.717452)" fill="none" stroke-linejoin="round" d="M 764.625923 521.065163 C 756.231199 526.404437 684.847493 526.537324 676.550454 521.066846 C 663.25363 512.302562 689.229752 480.044506 720.587417 480.83198 C 750.976708 481.595995 778.995316 511.932959 764.625923 521.065163 Z M 764.625923 521.065163 " stroke="#2a2a2a" stroke-width="8.3" stroke-opacity="1" stroke-miterlimit="1.5"/><path fill="#2a2a2a" d="M 254.222656 118.191406 C 254.242188 118.78125 254.242188 119.371094 254.21875 119.960938 C 254.195312 120.546875 254.152344 121.132812 254.085938 121.710938 C 254.023438 122.292969 253.9375 122.867188 253.832031 123.4375 C 253.722656 124.003906 253.597656 124.5625 253.453125 125.113281 C 253.304688 125.664062 253.140625 126.199219 252.953125 126.726562 C 252.769531 127.253906 252.5625 127.765625 252.339844 128.261719 C 252.117188 128.761719 251.878906 129.242188 251.621094 129.707031 C 251.363281 130.167969 251.089844 130.613281 250.800781 131.042969 C 250.507812 131.46875 250.203125 131.871094 249.882812 132.257812 C 249.5625 132.640625 249.230469 133.003906 248.882812 133.34375 C 248.535156 133.679688 248.179688 133.996094 247.808594 134.285156 C 247.4375 134.574219 247.058594 134.839844 246.667969 135.074219 C 246.277344 135.3125 245.882812 135.523438 245.476562 135.710938 C 245.070312 135.894531 244.65625 136.050781 244.238281 136.175781 C 243.820312 136.304688 243.398438 136.40625 242.972656 136.476562 C 242.546875 136.546875 242.121094 136.589844 241.691406 136.601562 C 241.261719 136.617188 240.828125 136.601562 240.398438 136.554688 C 239.96875 136.511719 239.542969 136.4375 239.117188 136.335938 C 238.691406 136.234375 238.269531 136.105469 237.851562 135.945312 C 237.4375 135.789062 237.023438 135.601562 236.621094 135.390625 C 236.214844 135.175781 235.820312 134.9375 235.429688 134.671875 C 235.042969 134.40625 234.664062 134.113281 234.296875 133.796875 C 233.925781 133.480469 233.570312 133.140625 233.226562 132.777344 C 232.878906 132.414062 232.550781 132.027344 232.230469 131.621094 C 231.914062 131.214844 231.609375 130.785156 231.324219 130.339844 C 231.035156 129.890625 230.761719 129.425781 230.507812 128.945312 C 230.253906 128.460938 230.015625 127.960938 229.796875 127.449219 C 229.574219 126.933594 229.375 126.410156 229.191406 125.871094 C 229.007812 125.328125 228.847656 124.78125 228.703125 124.21875 C 228.558594 123.660156 228.4375 123.089844 228.332031 122.515625 C 228.230469 121.941406 228.148438 121.359375 228.085938 120.773438 C 228.023438 120.1875 227.984375 119.601562 227.964844 119.011719 C 227.945312 118.421875 227.945312 117.832031 227.96875 117.246094 C 227.992188 116.65625 228.035156 116.074219 228.101562 115.492188 C 228.164062 114.910156 228.25 114.335938 228.355469 113.769531 C 228.464844 113.199219 228.589844 112.640625 228.734375 112.09375 C 228.882812 111.542969 229.046875 111.003906 229.234375 110.476562 C 229.417969 109.953125 229.625 109.441406 229.847656 108.941406 C 230.070312 108.445312 230.308594 107.964844 230.566406 107.5 C 230.824219 107.035156 231.097656 106.589844 231.390625 106.164062 C 231.679688 105.738281 231.984375 105.332031 232.304688 104.949219 C 232.625 104.5625 232.957031 104.203125 233.304688 103.863281 C 233.652344 103.523438 234.007812 103.210938 234.378906 102.921875 C 234.75 102.632812 235.128906 102.367188 235.519531 102.128906 C 235.910156 101.890625 236.308594 101.679688 236.710938 101.496094 C 237.117188 101.3125 237.53125 101.15625 237.949219 101.027344 C 238.367188 100.898438 238.789062 100.800781 239.214844 100.730469 C 239.640625 100.65625 240.066406 100.617188 240.5 100.601562 C 240.929688 100.589844 241.359375 100.605469 241.789062 100.648438 C 242.21875 100.691406 242.644531 100.765625 243.070312 100.867188 C 243.496094 100.96875 243.917969 101.101562 244.335938 101.257812 C 244.753906 101.417969 245.164062 101.601562 245.566406 101.816406 C 245.972656 102.027344 246.367188 102.269531 246.757812 102.535156 C 247.144531 102.800781 247.523438 103.09375 247.894531 103.410156 C 248.261719 103.726562 248.617188 104.066406 248.960938 104.429688 C 249.308594 104.792969 249.636719 105.175781 249.957031 105.585938 C 250.273438 105.992188 250.578125 106.417969 250.863281 106.867188 C 251.152344 107.3125 251.425781 107.777344 251.679688 108.261719 C 251.933594 108.746094 252.171875 109.242188 252.390625 109.757812 C 252.613281 110.269531 252.8125 110.796875 252.996094 111.335938 C 253.179688 111.875 253.339844 112.425781 253.484375 112.984375 C 253.628906 113.546875 253.75 114.113281 253.855469 114.6875 C 253.957031 115.265625 254.039062 115.84375 254.101562 116.429688 C 254.164062 117.015625 254.203125 117.605469 254.222656 118.191406 Z M 254.222656 118.191406 " fill-opacity="1" fill-rule="nonzero"/><path fill="#fccead" d="M 273.550781 140.117188 C 273.566406 140.605469 273.515625 141.089844 273.394531 141.574219 C 273.277344 142.058594 273.09375 142.53125 272.84375 142.988281 C 272.59375 143.449219 272.285156 143.886719 271.914062 144.304688 C 271.546875 144.722656 271.125 145.113281 270.648438 145.472656 C 270.171875 145.835938 269.652344 146.160156 269.085938 146.449219 C 268.523438 146.738281 267.925781 146.988281 267.292969 147.195312 C 266.664062 147.402344 266.011719 147.5625 265.335938 147.679688 C 264.664062 147.796875 263.980469 147.863281 263.292969 147.886719 C 262.601562 147.90625 261.917969 147.878906 261.238281 147.804688 C 260.558594 147.730469 259.898438 147.613281 259.253906 147.445312 C 258.613281 147.277344 258 147.066406 257.417969 146.8125 C 256.832031 146.558594 256.292969 146.269531 255.792969 145.9375 C 255.292969 145.605469 254.847656 145.246094 254.449219 144.851562 C 254.054688 144.457031 253.714844 144.039062 253.4375 143.59375 C 253.160156 143.152344 252.945312 142.691406 252.792969 142.21875 C 252.644531 141.742188 252.558594 141.261719 252.542969 140.769531 C 252.527344 140.28125 252.578125 139.796875 252.699219 139.3125 C 252.816406 138.828125 253 138.359375 253.25 137.898438 C 253.496094 137.4375 253.808594 137 254.175781 136.582031 C 254.546875 136.164062 254.96875 135.773438 255.445312 135.414062 C 255.921875 135.050781 256.441406 134.726562 257.007812 134.4375 C 257.570312 134.148438 258.167969 133.902344 258.800781 133.695312 C 259.429688 133.488281 260.082031 133.324219 260.753906 133.210938 C 261.429688 133.09375 262.109375 133.023438 262.800781 133.003906 C 263.488281 132.980469 264.175781 133.007812 264.855469 133.082031 C 265.535156 133.15625 266.195312 133.277344 266.839844 133.441406 C 267.480469 133.609375 268.09375 133.820312 268.675781 134.074219 C 269.257812 134.328125 269.800781 134.621094 270.296875 134.949219 C 270.796875 135.28125 271.246094 135.644531 271.640625 136.035156 C 272.039062 136.429688 272.375 136.851562 272.65625 137.292969 C 272.933594 137.738281 273.148438 138.195312 273.300781 138.671875 C 273.449219 139.144531 273.53125 139.628906 273.550781 140.117188 Z M 273.550781 140.117188 " fill-opacity="1" fill-rule="nonzero"/><path stroke-linecap="round" transform="matrix(-0.723786, 0, 0, 0.71042, 740.957956, -160.339002)" fill="none" stroke-linejoin="round" d="M 603.042029 623.45854 C 613.490554 606.853035 620.787252 586.200626 624.89974 560.726022 " stroke="#2a2a2a" stroke-width="5.24" stroke-opacity="0.2" stroke-miterlimit="1.5"/><path stroke-linecap="round" transform="matrix(0.723786, 0, 0, 0.71042, -316.607113, -152.946655)" fill="none" stroke-linejoin="round" d="M 792.805733 700.759688 C 794.036241 648.798755 786.723352 596.843319 769.361314 544.887884 " stroke="#2a2a2a" stroke-width="5.24" stroke-opacity="0.2" stroke-miterlimit="1.5"/><path stroke-linecap="round" transform="matrix(-0.723786, 0, 0, 0.71042, 737.575972, -186.706541)" fill="none" stroke-linejoin="round" d="M 792.805883 700.757108 C 794.036391 648.801673 782.918642 612.049622 765.562001 560.094187 " stroke="#2a2a2a" stroke-width="5.24" stroke-opacity="0.2" stroke-miterlimit="1.5"/></svg>