<svg xmlns="http://www.w3.org/2000/svg" xmlns:xlink="http://www.w3.org/1999/xlink" width="500" zoomAndPan="magnify" viewBox="0 0 375 374.999991" height="500" preserveAspectRatio="xMidYMid meet" version="1.0"><defs><clipPath id="9cc0f06a18"><path d="M 37.5 3.601562 L 337.5 3.601562 L 337.5 368 L 37.5 368 Z M 37.5 3.601562 " clip-rule="nonzero"/></clipPath></defs><g clip-path="url(#9cc0f06a18)"><path fill="#f2ede8" d="M 331.148438 307.464844 C 300.011719 283.132812 286.890625 235.777344 281.503906 196.542969 C 272.949219 134.316406 288.625 3.828125 190.601562 3.828125 C 104.78125 3.828125 98.445312 125.445312 89.257812 184.035156 C 82.199219 229.066406 53.054688 286.238281 39.957031 310.300781 C 39.398438 311.320312 38.933594 312.378906 38.558594 313.480469 C 38.183594 314.578125 37.90625 315.703125 37.726562 316.851562 C 37.550781 318 37.46875 319.15625 37.492188 320.316406 C 37.515625 321.480469 37.636719 322.628906 37.859375 323.773438 C 38.082031 324.914062 38.402344 326.023438 38.820312 327.109375 C 39.238281 328.195312 39.746094 329.234375 40.34375 330.234375 C 40.941406 331.230469 41.621094 332.167969 42.382812 333.042969 C 43.144531 333.921875 43.976562 334.730469 44.875 335.460938 C 54.953125 343.578125 72.03125 349.671875 97.34375 334.785156 C 98.203125 334.269531 99.03125 333.832031 99.863281 333.363281 C 108.203125 324.855469 125.507812 302.199219 133.953125 254.453125 L 135.78125 254.785156 C 128.238281 297.25 114.101562 319.925781 104.902344 330.742188 C 141.46875 313.257812 157.335938 336.667969 161.789062 346.023438 C 166.539062 356.007812 186.316406 376.449219 221.796875 355.84375 C 235.871094 347.679688 250.335938 354.03125 261.605469 362.886719 C 262.425781 363.519531 263.285156 364.09375 264.1875 364.605469 C 259.960938 354.453125 254.878906 340.9375 251.4375 329.457031 L 253.21875 328.914062 C 256.871094 341.105469 262.390625 355.617188 266.796875 365.890625 C 267.851562 366.351562 268.9375 366.722656 270.054688 367.003906 C 271.167969 367.289062 272.300781 367.476562 273.449219 367.570312 C 274.597656 367.667969 275.746094 367.667969 276.894531 367.574219 C 278.039062 367.480469 279.171875 367.292969 280.289062 367.011719 C 281.40625 366.730469 282.492188 366.359375 283.546875 365.898438 C 284.601562 365.4375 285.613281 364.890625 286.578125 364.265625 C 287.542969 363.636719 288.453125 362.933594 289.300781 362.15625 C 290.152344 361.378906 290.929688 360.535156 291.640625 359.628906 C 295.742188 354.214844 301.203125 346.867188 310.375 346.050781 C 337.078125 343.5625 344.214844 317.675781 331.148438 307.464844 Z M 137.183594 244.9375 L 136.925781 247.664062 L 135.070312 247.5 L 135.328125 244.753906 C 136.488281 232.445312 139.191406 203.585938 139.324219 191.308594 L 141.179688 191.308594 C 141.046875 203.691406 138.433594 231.617188 137.183594 244.9375 Z M 165.84375 337.332031 C 164.910156 298.578125 158.300781 255.871094 158.300781 255.433594 L 160.144531 255.148438 C 160.144531 255.570312 166.8125 298.414062 167.761719 337.289062 Z M 211.402344 275.152344 L 209.5625 275.332031 C 203.332031 213.210938 211.175781 172.253906 211.25 171.847656 L 213.078125 172.210938 C 213.078125 172.617188 205.292969 213.316406 211.476562 275.152344 Z M 247.261719 314.585938 C 228.570312 243.425781 224.238281 162.132812 224.195312 161.316406 L 226.050781 161.226562 C 226.050781 162.042969 230.425781 243.15625 249.054688 314.117188 Z M 282.589844 332.925781 C 269.089844 309.679688 268.9375 272.828125 268.9375 272.464844 L 270.792969 272.464844 C 270.792969 272.828125 270.945312 309.183594 284.203125 331.992188 Z M 309.277344 329.910156 C 282.832031 308.460938 276.207031 263.625 276.089844 263.171875 L 277.929688 262.917969 C 277.929688 263.355469 284.519531 307.480469 310.375 328.460938 Z M 309.277344 329.910156 " fill-opacity="1" fill-rule="nonzero"/></g><path fill="#000000" d="M 161.832031 101.371094 C 161.832031 102.449219 161.800781 103.523438 161.742188 104.597656 C 161.683594 105.671875 161.59375 106.734375 161.472656 107.792969 C 161.355469 108.851562 161.207031 109.898438 161.027344 110.929688 C 160.851562 111.960938 160.644531 112.976562 160.410156 113.972656 C 160.175781 114.96875 159.914062 115.941406 159.625 116.894531 C 159.335938 117.84375 159.023438 118.769531 158.683594 119.664062 C 158.34375 120.5625 157.976562 121.425781 157.589844 122.261719 C 157.203125 123.09375 156.789062 123.890625 156.359375 124.65625 C 155.925781 125.417969 155.472656 126.140625 155 126.824219 C 154.527344 127.507812 154.035156 128.152344 153.527344 128.75 C 153.015625 129.351562 152.492188 129.902344 151.953125 130.410156 C 151.414062 130.921875 150.859375 131.382812 150.292969 131.792969 C 149.730469 132.207031 149.152344 132.570312 148.566406 132.882812 C 147.980469 133.195312 147.386719 133.457031 146.789062 133.667969 C 146.1875 133.878906 145.582031 134.035156 144.972656 134.140625 C 144.363281 134.246094 143.753906 134.300781 143.140625 134.300781 C 142.53125 134.300781 141.917969 134.246094 141.308594 134.140625 C 140.699219 134.035156 140.097656 133.878906 139.496094 133.667969 C 138.894531 133.457031 138.300781 133.195312 137.714844 132.882812 C 137.128906 132.570312 136.554688 132.207031 135.988281 131.792969 C 135.421875 131.382812 134.871094 130.921875 134.332031 130.410156 C 133.792969 129.902344 133.265625 129.351562 132.757812 128.75 C 132.25 128.152344 131.757812 127.507812 131.285156 126.824219 C 130.8125 126.140625 130.359375 125.417969 129.925781 124.65625 C 129.492188 123.890625 129.082031 123.09375 128.695312 122.261719 C 128.304688 121.425781 127.941406 120.5625 127.601562 119.664062 C 127.261719 118.769531 126.945312 117.84375 126.660156 116.894531 C 126.371094 115.941406 126.109375 114.96875 125.875 113.972656 C 125.640625 112.976562 125.433594 111.960938 125.257812 110.929688 C 125.078125 109.898438 124.929688 108.851562 124.808594 107.792969 C 124.691406 106.734375 124.601562 105.671875 124.542969 104.597656 C 124.480469 103.523438 124.453125 102.449219 124.453125 101.371094 C 124.453125 100.289062 124.480469 99.214844 124.542969 98.140625 C 124.601562 97.066406 124.691406 96.003906 124.808594 94.945312 C 124.929688 93.886719 125.078125 92.84375 125.257812 91.808594 C 125.433594 90.777344 125.640625 89.765625 125.875 88.765625 C 126.109375 87.769531 126.371094 86.796875 126.660156 85.847656 C 126.945312 84.894531 127.261719 83.96875 127.601562 83.074219 C 127.941406 82.175781 128.304688 81.3125 128.695312 80.476562 C 129.082031 79.644531 129.492188 78.847656 129.925781 78.082031 C 130.359375 77.320312 130.8125 76.597656 131.285156 75.914062 C 131.757812 75.230469 132.25 74.585938 132.757812 73.988281 C 133.265625 73.390625 133.792969 72.835938 134.332031 72.328125 C 134.871094 71.820312 135.421875 71.359375 135.988281 70.945312 C 136.554688 70.53125 137.128906 70.167969 137.714844 69.855469 C 138.300781 69.542969 138.894531 69.28125 139.496094 69.070312 C 140.097656 68.859375 140.699219 68.703125 141.308594 68.597656 C 141.917969 68.492188 142.53125 68.4375 143.140625 68.4375 C 143.753906 68.4375 144.363281 68.492188 144.972656 68.597656 C 145.582031 68.703125 146.1875 68.859375 146.789062 69.070312 C 147.386719 69.28125 147.980469 69.542969 148.566406 69.855469 C 149.152344 70.167969 149.730469 70.53125 150.292969 70.945312 C 150.859375 71.359375 151.414062 71.820312 151.953125 72.328125 C 152.492188 72.835938 153.015625 73.390625 153.527344 73.988281 C 154.035156 74.585938 154.527344 75.230469 155 75.914062 C 155.472656 76.597656 155.925781 77.320312 156.359375 78.082031 C 156.789062 78.847656 157.203125 79.644531 157.589844 80.476562 C 157.976562 81.3125 158.34375 82.175781 158.683594 83.074219 C 159.023438 83.96875 159.335938 84.894531 159.625 85.847656 C 159.914062 86.796875 160.175781 87.769531 160.410156 88.765625 C 160.644531 89.765625 160.851562 90.777344 161.027344 91.808594 C 161.207031 92.84375 161.355469 93.886719 161.472656 94.945312 C 161.59375 96.003906 161.683594 97.066406 161.742188 98.140625 C 161.800781 99.214844 161.832031 100.289062 161.832031 101.371094 Z M 161.832031 101.371094 " fill-opacity="1" fill-rule="nonzero"/><path fill="#f2ede8" d="M 131.8125 118.476562 C 123.484375 88.304688 137.605469 76.238281 138.210938 75.769531 L 139.386719 77.277344 C 139.25 77.398438 125.628906 89.105469 133.609375 118.097656 Z M 131.8125 118.476562 " fill-opacity="1" fill-rule="nonzero"/><path fill="#f2ede8" d="M 135.960938 126.425781 C 134.675781 124.734375 133.59375 122.917969 132.71875 120.980469 L 134.40625 120.210938 C 135.234375 121.988281 136.242188 123.65625 137.425781 125.21875 Z M 135.960938 126.425781 " fill-opacity="1" fill-rule="nonzero"/><path fill="#000000" d="M 209.261719 101.371094 C 209.261719 102.449219 209.230469 103.523438 209.171875 104.597656 C 209.109375 105.671875 209.019531 106.734375 208.902344 107.792969 C 208.78125 108.851562 208.632812 109.898438 208.457031 110.929688 C 208.277344 111.960938 208.070312 112.976562 207.835938 113.972656 C 207.601562 114.96875 207.34375 115.941406 207.054688 116.894531 C 206.765625 117.84375 206.449219 118.769531 206.109375 119.664062 C 205.769531 120.5625 205.40625 121.425781 205.019531 122.261719 C 204.628906 123.09375 204.21875 123.890625 203.785156 124.65625 C 203.351562 125.417969 202.898438 126.140625 202.425781 126.824219 C 201.953125 127.507812 201.460938 128.152344 200.953125 128.75 C 200.445312 129.351562 199.921875 129.902344 199.378906 130.410156 C 198.839844 130.921875 198.289062 131.382812 197.722656 131.792969 C 197.15625 132.207031 196.582031 132.570312 195.996094 132.882812 C 195.410156 133.195312 194.816406 133.457031 194.214844 133.667969 C 193.617188 133.878906 193.011719 134.035156 192.402344 134.140625 C 191.792969 134.246094 191.183594 134.300781 190.570312 134.300781 C 189.957031 134.300781 189.347656 134.246094 188.738281 134.140625 C 188.128906 134.035156 187.523438 133.878906 186.921875 133.667969 C 186.324219 133.457031 185.730469 133.195312 185.144531 132.882812 C 184.558594 132.570312 183.984375 132.207031 183.417969 131.792969 C 182.851562 131.382812 182.300781 130.921875 181.757812 130.410156 C 181.21875 129.902344 180.695312 129.351562 180.1875 128.75 C 179.675781 128.152344 179.1875 127.507812 178.710938 126.824219 C 178.238281 126.140625 177.785156 125.417969 177.355469 124.65625 C 176.921875 123.890625 176.511719 123.09375 176.121094 122.261719 C 175.734375 121.425781 175.371094 120.5625 175.027344 119.664062 C 174.6875 118.769531 174.375 117.84375 174.085938 116.894531 C 173.796875 115.941406 173.535156 114.96875 173.300781 113.972656 C 173.066406 112.976562 172.863281 111.960938 172.683594 110.929688 C 172.507812 109.898438 172.359375 108.851562 172.238281 107.792969 C 172.117188 106.734375 172.027344 105.671875 171.96875 104.597656 C 171.910156 103.523438 171.878906 102.449219 171.878906 101.371094 C 171.878906 100.289062 171.910156 99.214844 171.96875 98.140625 C 172.027344 97.066406 172.117188 96.003906 172.238281 94.945312 C 172.359375 93.886719 172.507812 92.84375 172.683594 91.808594 C 172.863281 90.777344 173.066406 89.765625 173.300781 88.765625 C 173.535156 87.769531 173.796875 86.796875 174.085938 85.847656 C 174.375 84.894531 174.6875 83.96875 175.027344 83.074219 C 175.371094 82.175781 175.734375 81.3125 176.121094 80.476562 C 176.511719 79.644531 176.921875 78.847656 177.355469 78.082031 C 177.785156 77.320312 178.238281 76.597656 178.710938 75.914062 C 179.1875 75.230469 179.675781 74.585938 180.1875 73.988281 C 180.695312 73.390625 181.21875 72.835938 181.757812 72.328125 C 182.300781 71.820312 182.851562 71.359375 183.417969 70.945312 C 183.984375 70.53125 184.558594 70.167969 185.144531 69.855469 C 185.730469 69.542969 186.324219 69.28125 186.921875 69.070312 C 187.523438 68.859375 188.128906 68.703125 188.738281 68.597656 C 189.347656 68.492188 189.957031 68.4375 190.570312 68.4375 C 191.183594 68.4375 191.792969 68.492188 192.402344 68.597656 C 193.011719 68.703125 193.617188 68.859375 194.214844 69.070312 C 194.816406 69.28125 195.410156 69.542969 195.996094 69.855469 C 196.582031 70.167969 197.15625 70.53125 197.722656 70.945312 C 198.289062 71.359375 198.839844 71.820312 199.378906 72.328125 C 199.921875 72.835938 200.445312 73.390625 200.953125 73.988281 C 201.460938 74.585938 201.953125 75.230469 202.425781 75.914062 C 202.898438 76.597656 203.351562 77.320312 203.785156 78.082031 C 204.21875 78.847656 204.628906 79.644531 205.019531 80.476562 C 205.40625 81.3125 205.769531 82.175781 206.109375 83.074219 C 206.449219 83.96875 206.765625 84.894531 207.054688 85.847656 C 207.34375 86.796875 207.601562 87.769531 207.835938 88.765625 C 208.070312 89.765625 208.277344 90.777344 208.457031 91.808594 C 208.632812 92.84375 208.78125 93.886719 208.902344 94.945312 C 209.019531 96.003906 209.109375 97.066406 209.171875 98.140625 C 209.230469 99.214844 209.261719 100.289062 209.261719 101.371094 Z M 209.261719 101.371094 " fill-opacity="1" fill-rule="nonzero"/><path fill="#f2ede8" d="M 179.300781 118.476562 C 170.914062 88.304688 185.019531 76.238281 185.621094 75.769531 L 186.8125 77.277344 C 186.664062 77.398438 173.054688 89.105469 181.019531 118.097656 Z M 179.300781 118.476562 " fill-opacity="1" fill-rule="nonzero"/><path fill="#f2ede8" d="M 183.390625 126.425781 C 182.101562 124.730469 181.015625 122.917969 180.128906 120.980469 L 181.820312 120.210938 C 182.644531 121.988281 183.652344 123.660156 184.835938 125.21875 Z M 183.390625 126.425781 " fill-opacity="1" fill-rule="nonzero"/></svg>